<svg fill="none" xmlns="http://www.w3.org/2000/svg" viewBox="0 0 25 25"><g clip-path="url(#a)"><circle cx="12.5" cy="12.5" r="12.5" fill="#fff"/><path d="M14.739 4.027c.416.111.664.54.552.957l-4.14 15.447a.781.781 0 1 1-1.508-.404l4.139-15.448a.781.781 0 0 1 .957-.552ZM17.095 7.204a.781.781 0 0 1 1.103-.058l1.81 1.629c.767.69 1.403 1.263 1.84 1.782.46.546.786 1.133.786 1.857s-.327 1.311-.786 1.857c-.437.52-1.073 1.092-1.84 1.782l-1.81 1.63a.781.781 0 0 1-1.045-1.162l1.767-1.59c.82-.74 1.374-1.24 1.732-1.666.344-.409.42-.647.42-.851 0-.204-.076-.442-.42-.851-.358-.426-.912-.927-1.732-1.665l-1.767-1.59a.781.781 0 0 1-.058-1.104ZM7.781 8.307a.781.781 0 0 0-1.045-1.161l-1.81 1.629c-.767.69-1.403 1.263-1.84 1.782-.46.546-.786 1.133-.786 1.857s.326 1.311.786 1.857c.437.52 1.073 1.092 1.84 1.782l1.81 1.63A.781.781 0 0 0 7.78 16.52l-1.767-1.59c-.82-.74-1.374-1.24-1.733-1.666-.344-.409-.419-.647-.419-.851 0-.204.075-.442.42-.851.358-.426.911-.927 1.732-1.665l1.767-1.59Z" fill="#000"/></g><defs><clipPath id="a"><path fill="#fff" d="M0 0h25v25H0z"/></clipPath></defs></svg>